<?xml version="1.0" encoding="UTF-8" standalone="no"?> <svg xmlns="http://www.w3.org/2000/svg" viewBox="0 0 64 64"><defs><style>.cls-1{fill:#ffb8f2;}.cls-1,.cls-2{stroke:#54596e;}.cls-1,.cls-2,.cls-4{stroke-linecap:round;stroke-linejoin:round;}.cls-1,.cls-2,.cls-4,.cls-5{stroke-width:2px;}.cls-2,.cls-4,.cls-5{fill:none;}.cls-3{fill:#54596e;}.cls-4{stroke:#55a6ff;}.cls-5{stroke:#fff;stroke-miterlimit:10;}</style></defs><title>jewel</title><g id="jewel"><polyline class="cls-1" points="54.27 26 46.75 13 17.25 13 9.72 26"/><polygon class="cls-1" points="32 59.63 54.27 26 9.72 26 32 59.63"/><polygon class="cls-2" points="39.88 26 32 13.18 23.56 26 32 59.63 39.88 26"/><path class="cls-3" d="M35,30H28.47c-1.43,0-2.39,1.14-1.81,2.15l3.39,5.93a2.24,2.24,0,0,0,3.63,0l3.16-5.93C37.39,31.11,36.43,30,35,30Z"/><line class="cls-4" x1="32" y1="6.43" x2="32" y2="2.38"/><line class="cls-4" x1="47.53" y1="8.45" x2="49.55" y2="5.08"/><line class="cls-4" x1="56.3" y1="17.23" x2="59" y2="13.85"/><line class="cls-4" x1="16.47" y1="8.45" x2="14.45" y2="5.08"/><line class="cls-4" x1="7.7" y1="17.23" x2="5" y2="13.85"/><circle class="cls-3" cx="19.5" cy="29.5" r="1.5"/><circle class="cls-3" cx="43.5" cy="29.5" r="1.5"/><line class="cls-5" x1="30" y1="32" x2="34" y2="32"/></g></svg>